<svg width="24" height="24" viewBox="0 0 24 24" fill="none" xmlns="http://www.w3.org/2000/svg">
<path d="M12 1C13.0609 1 14.0783 1.42143 14.8284 2.17157C15.5786 2.92172 16 3.93913 16 5V11C16 12.0609 15.5786 13.0783 14.8284 13.8284C14.0783 14.5786 13.0609 15 12 15C10.9391 15 9.92172 14.5786 9.17157 13.8284C8.42143 13.0783 8 12.0609 8 11V5C8 3.93913 8.42143 2.92172 9.17157 2.17157C9.92172 1.42143 10.9391 1 12 1V1Z" fill="#1CD1A1"/>
<path d="M13 18.94V21H16C16.2652 21 16.5196 21.1054 16.7071 21.2929C16.8946 21.4804 17 21.7348 17 22C17 22.2652 16.8946 22.5196 16.7071 22.7071C16.5196 22.8946 16.2652 23 16 23H8C7.73478 23 7.48043 22.8946 7.29289 22.7071C7.10536 22.5196 7 22.2652 7 22C7 21.7348 7.10536 21.4804 7.29289 21.2929C7.48043 21.1054 7.73478 21 8 21H11V18.94C9.06627 18.6964 7.28799 17.7552 5.99909 16.2932C4.71019 14.8312 3.99933 12.949 4 11C4 10.7348 4.10536 10.4804 4.29289 10.2929C4.48043 10.1054 4.73478 10 5 10C5.26522 10 5.51957 10.1054 5.70711 10.2929C5.89464 10.4804 6 10.7348 6 11C6 12.5913 6.63214 14.1174 7.75736 15.2426C8.88258 16.3679 10.4087 17 12 17C13.5913 17 15.1174 16.3679 16.2426 15.2426C17.3679 14.1174 18 12.5913 18 11C18 10.7348 18.1054 10.4804 18.2929 10.2929C18.4804 10.1054 18.7348 10 19 10C19.2652 10 19.5196 10.1054 19.7071 10.2929C19.8946 10.4804 20 10.7348 20 11C20.0007 12.949 19.2898 14.8312 18.0009 16.2932C16.712 17.7552 14.9337 18.6964 13 18.94V18.94Z" fill="#1CD1A1"/>
</svg>
